<svg version="1.1" xmlns="http://www.w3.org/2000/svg" xmlns:xlink="http://www.w3.org/1999/xlink" width="900" height="644"><defs/><g><text fill="#eeeeee" stroke="none" font-family="Arial" font-size="24px" font-style="normal" font-weight="normal" text-decoration="none" x="0" y="0">UNREGISTERED</text><text fill="#eeeeee" stroke="none" font-family="Arial" font-size="24px" font-style="normal" font-weight="normal" text-decoration="none" x="0" y="30">UNREGISTERED</text><text fill="#eeeeee" stroke="none" font-family="Arial" font-size="24px" font-style="normal" font-weight="normal" text-decoration="none" x="0" y="60">UNREGISTERED</text><text fill="#eeeeee" stroke="none" font-family="Arial" font-size="24px" font-style="normal" font-weight="normal" text-decoration="none" x="0" y="90">UNREGISTERED</text><text fill="#eeeeee" stroke="none" font-family="Arial" font-size="24px" font-style="normal" font-weight="normal" text-decoration="none" x="0" y="120">UNREGISTERED</text><text fill="#eeeeee" stroke="none" font-family="Arial" font-size="24px" font-style="normal" font-weight="normal" text-decoration="none" x="0" y="150">UNREGISTERED</text><text fill="#eeeeee" stroke="none" font-family="Arial" font-size="24px" font-style="normal" font-weight="normal" text-decoration="none" x="0" y="180">UNREGISTERED</text><text fill="#eeeeee" stroke="none" font-family="Arial" font-size="24px" font-style="normal" font-weight="normal" text-decoration="none" x="0" y="210">UNREGISTERED</text><text fill="#eeeeee" stroke="none" font-family="Arial" font-size="24px" font-style="normal" font-weight="normal" text-decoration="none" x="0" y="240">UNREGISTERED</text><text fill="#eeeeee" stroke="none" font-family="Arial" font-size="24px" font-style="normal" font-weight="normal" text-decoration="none" x="0" y="270">UNREGISTERED</text><text fill="#eeeeee" stroke="none" font-family="Arial" font-size="24px" font-style="normal" font-weight="normal" text-decoration="none" x="0" y="300">UNREGISTERED</text><text fill="#eeeeee" stroke="none" font-family="Arial" font-size="24px" font-style="normal" font-weight="normal" text-decoration="none" x="0" y="330">UNREGISTERED</text><text fill="#eeeeee" stroke="none" font-family="Arial" font-size="24px" font-style="normal" font-weight="normal" text-decoration="none" x="0" y="360">UNREGISTERED</text><text fill="#eeeeee" stroke="none" font-family="Arial" font-size="24px" font-style="normal" font-weight="normal" text-decoration="none" x="0" y="390">UNREGISTERED</text><text fill="#eeeeee" stroke="none" font-family="Arial" font-size="24px" font-style="normal" font-weight="normal" text-decoration="none" x="0" y="420">UNREGISTERED</text><text fill="#eeeeee" stroke="none" font-family="Arial" font-size="24px" font-style="normal" font-weight="normal" text-decoration="none" x="0" y="450">UNREGISTERED</text><text fill="#eeeeee" stroke="none" font-family="Arial" font-size="24px" font-style="normal" font-weight="normal" text-decoration="none" x="0" y="480">UNREGISTERED</text><text fill="#eeeeee" stroke="none" font-family="Arial" font-size="24px" font-style="normal" font-weight="normal" text-decoration="none" x="0" y="510">UNREGISTERED</text><text fill="#eeeeee" stroke="none" font-family="Arial" font-size="24px" font-style="normal" font-weight="normal" text-decoration="none" x="0" y="540">UNREGISTERED</text><text fill="#eeeeee" stroke="none" font-family="Arial" font-size="24px" font-style="normal" font-weight="normal" text-decoration="none" x="0" y="570">UNREGISTERED</text><text fill="#eeeeee" stroke="none" font-family="Arial" font-size="24px" font-style="normal" font-weight="normal" text-decoration="none" x="0" y="600">UNREGISTERED</text><text fill="#eeeeee" stroke="none" font-family="Arial" font-size="24px" font-style="normal" font-weight="normal" text-decoration="none" x="0" y="630">UNREGISTERED</text><text fill="#eeeeee" stroke="none" font-family="Arial" font-size="24px" font-style="normal" font-weight="normal" text-decoration="none" x="200" y="0">UNREGISTERED</text><text fill="#eeeeee" stroke="none" font-family="Arial" font-size="24px" font-style="normal" font-weight="normal" text-decoration="none" x="200" y="30">UNREGISTERED</text><text fill="#eeeeee" stroke="none" font-family="Arial" font-size="24px" font-style="normal" font-weight="normal" text-decoration="none" x="200" y="60">UNREGISTERED</text><text fill="#eeeeee" stroke="none" font-family="Arial" font-size="24px" font-style="normal" font-weight="normal" text-decoration="none" x="200" y="90">UNREGISTERED</text><text fill="#eeeeee" stroke="none" font-family="Arial" font-size="24px" font-style="normal" font-weight="normal" text-decoration="none" x="200" y="120">UNREGISTERED</text><text fill="#eeeeee" stroke="none" font-family="Arial" font-size="24px" font-style="normal" font-weight="normal" text-decoration="none" x="200" y="150">UNREGISTERED</text><text fill="#eeeeee" stroke="none" font-family="Arial" font-size="24px" font-style="normal" font-weight="normal" text-decoration="none" x="200" y="180">UNREGISTERED</text><text fill="#eeeeee" stroke="none" font-family="Arial" font-size="24px" font-style="normal" font-weight="normal" text-decoration="none" x="200" y="210">UNREGISTERED</text><text fill="#eeeeee" stroke="none" font-family="Arial" font-size="24px" font-style="normal" font-weight="normal" text-decoration="none" x="200" y="240">UNREGISTERED</text><text fill="#eeeeee" stroke="none" font-family="Arial" font-size="24px" font-style="normal" font-weight="normal" text-decoration="none" x="200" y="270">UNREGISTERED</text><text fill="#eeeeee" stroke="none" font-family="Arial" font-size="24px" font-style="normal" font-weight="normal" text-decoration="none" x="200" y="300">UNREGISTERED</text><text fill="#eeeeee" stroke="none" font-family="Arial" font-size="24px" font-style="normal" font-weight="normal" text-decoration="none" x="200" y="330">UNREGISTERED</text><text fill="#eeeeee" stroke="none" font-family="Arial" font-size="24px" font-style="normal" font-weight="normal" text-decoration="none" x="200" y="360">UNREGISTERED</text><text fill="#eeeeee" stroke="none" font-family="Arial" font-size="24px" font-style="normal" font-weight="normal" text-decoration="none" x="200" y="390">UNREGISTERED</text><text fill="#eeeeee" stroke="none" font-family="Arial" font-size="24px" font-style="normal" font-weight="normal" text-decoration="none" x="200" y="420">UNREGISTERED</text><text fill="#eeeeee" stroke="none" font-family="Arial" font-size="24px" font-style="normal" font-weight="normal" text-decoration="none" x="200" y="450">UNREGISTERED</text><text fill="#eeeeee" stroke="none" font-family="Arial" font-size="24px" font-style="normal" font-weight="normal" text-decoration="none" x="200" y="480">UNREGISTERED</text><text fill="#eeeeee" stroke="none" font-family="Arial" font-size="24px" font-style="normal" font-weight="normal" text-decoration="none" x="200" y="510">UNREGISTERED</text><text fill="#eeeeee" stroke="none" font-family="Arial" font-size="24px" font-style="normal" font-weight="normal" text-decoration="none" x="200" y="540">UNREGISTERED</text><text fill="#eeeeee" stroke="none" font-family="Arial" font-size="24px" font-style="normal" font-weight="normal" text-decoration="none" x="200" y="570">UNREGISTERED</text><text fill="#eeeeee" stroke="none" font-family="Arial" font-size="24px" font-style="normal" font-weight="normal" text-decoration="none" x="200" y="600">UNREGISTERED</text><text fill="#eeeeee" stroke="none" font-family="Arial" font-size="24px" font-style="normal" font-weight="normal" text-decoration="none" x="200" y="630">UNREGISTERED</text><text fill="#eeeeee" stroke="none" font-family="Arial" font-size="24px" font-style="normal" font-weight="normal" text-decoration="none" x="400" y="0">UNREGISTERED</text><text fill="#eeeeee" stroke="none" font-family="Arial" font-size="24px" font-style="normal" font-weight="normal" text-decoration="none" x="400" y="30">UNREGISTERED</text><text fill="#eeeeee" stroke="none" font-family="Arial" font-size="24px" font-style="normal" font-weight="normal" text-decoration="none" x="400" y="60">UNREGISTERED</text><text fill="#eeeeee" stroke="none" font-family="Arial" font-size="24px" font-style="normal" font-weight="normal" text-decoration="none" x="400" y="90">UNREGISTERED</text><text fill="#eeeeee" stroke="none" font-family="Arial" font-size="24px" font-style="normal" font-weight="normal" text-decoration="none" x="400" y="120">UNREGISTERED</text><text fill="#eeeeee" stroke="none" font-family="Arial" font-size="24px" font-style="normal" font-weight="normal" text-decoration="none" x="400" y="150">UNREGISTERED</text><text fill="#eeeeee" stroke="none" font-family="Arial" font-size="24px" font-style="normal" font-weight="normal" text-decoration="none" x="400" y="180">UNREGISTERED</text><text fill="#eeeeee" stroke="none" font-family="Arial" font-size="24px" font-style="normal" font-weight="normal" text-decoration="none" x="400" y="210">UNREGISTERED</text><text fill="#eeeeee" stroke="none" font-family="Arial" font-size="24px" font-style="normal" font-weight="normal" text-decoration="none" x="400" y="240">UNREGISTERED</text><text fill="#eeeeee" stroke="none" font-family="Arial" font-size="24px" font-style="normal" font-weight="normal" text-decoration="none" x="400" y="270">UNREGISTERED</text><text fill="#eeeeee" stroke="none" font-family="Arial" font-size="24px" font-style="normal" font-weight="normal" text-decoration="none" x="400" y="300">UNREGISTERED</text><text fill="#eeeeee" stroke="none" font-family="Arial" font-size="24px" font-style="normal" font-weight="normal" text-decoration="none" x="400" y="330">UNREGISTERED</text><text fill="#eeeeee" stroke="none" font-family="Arial" font-size="24px" font-style="normal" font-weight="normal" text-decoration="none" x="400" y="360">UNREGISTERED</text><text fill="#eeeeee" stroke="none" font-family="Arial" font-size="24px" font-style="normal" font-weight="normal" text-decoration="none" x="400" y="390">UNREGISTERED</text><text fill="#eeeeee" stroke="none" font-family="Arial" font-size="24px" font-style="normal" font-weight="normal" text-decoration="none" x="400" y="420">UNREGISTERED</text><text fill="#eeeeee" stroke="none" font-family="Arial" font-size="24px" font-style="normal" font-weight="normal" text-decoration="none" x="400" y="450">UNREGISTERED</text><text fill="#eeeeee" stroke="none" font-family="Arial" font-size="24px" font-style="normal" font-weight="normal" text-decoration="none" x="400" y="480">UNREGISTERED</text><text fill="#eeeeee" stroke="none" font-family="Arial" font-size="24px" font-style="normal" font-weight="normal" text-decoration="none" x="400" y="510">UNREGISTERED</text><text fill="#eeeeee" stroke="none" font-family="Arial" font-size="24px" font-style="normal" font-weight="normal" text-decoration="none" x="400" y="540">UNREGISTERED</text><text fill="#eeeeee" stroke="none" font-family="Arial" font-size="24px" font-style="normal" font-weight="normal" text-decoration="none" x="400" y="570">UNREGISTERED</text><text fill="#eeeeee" stroke="none" font-family="Arial" font-size="24px" font-style="normal" font-weight="normal" text-decoration="none" x="400" y="600">UNREGISTERED</text><text fill="#eeeeee" stroke="none" font-family="Arial" font-size="24px" font-style="normal" font-weight="normal" text-decoration="none" x="400" y="630">UNREGISTERED</text><text fill="#eeeeee" stroke="none" font-family="Arial" font-size="24px" font-style="normal" font-weight="normal" text-decoration="none" x="600" y="0">UNREGISTERED</text><text fill="#eeeeee" stroke="none" font-family="Arial" font-size="24px" font-style="normal" font-weight="normal" text-decoration="none" x="600" y="30">UNREGISTERED</text><text fill="#eeeeee" stroke="none" font-family="Arial" font-size="24px" font-style="normal" font-weight="normal" text-decoration="none" x="600" y="60">UNREGISTERED</text><text fill="#eeeeee" stroke="none" font-family="Arial" font-size="24px" font-style="normal" font-weight="normal" text-decoration="none" x="600" y="90">UNREGISTERED</text><text fill="#eeeeee" stroke="none" font-family="Arial" font-size="24px" font-style="normal" font-weight="normal" text-decoration="none" x="600" y="120">UNREGISTERED</text><text fill="#eeeeee" stroke="none" font-family="Arial" font-size="24px" font-style="normal" font-weight="normal" text-decoration="none" x="600" y="150">UNREGISTERED</text><text fill="#eeeeee" stroke="none" font-family="Arial" font-size="24px" font-style="normal" font-weight="normal" text-decoration="none" x="600" y="180">UNREGISTERED</text><text fill="#eeeeee" stroke="none" font-family="Arial" font-size="24px" font-style="normal" font-weight="normal" text-decoration="none" x="600" y="210">UNREGISTERED</text><text fill="#eeeeee" stroke="none" font-family="Arial" font-size="24px" font-style="normal" font-weight="normal" text-decoration="none" x="600" y="240">UNREGISTERED</text><text fill="#eeeeee" stroke="none" font-family="Arial" font-size="24px" font-style="normal" font-weight="normal" text-decoration="none" x="600" y="270">UNREGISTERED</text><text fill="#eeeeee" stroke="none" font-family="Arial" font-size="24px" font-style="normal" font-weight="normal" text-decoration="none" x="600" y="300">UNREGISTERED</text><text fill="#eeeeee" stroke="none" font-family="Arial" font-size="24px" font-style="normal" font-weight="normal" text-decoration="none" x="600" y="330">UNREGISTERED</text><text fill="#eeeeee" stroke="none" font-family="Arial" font-size="24px" font-style="normal" font-weight="normal" text-decoration="none" x="600" y="360">UNREGISTERED</text><text fill="#eeeeee" stroke="none" font-family="Arial" font-size="24px" font-style="normal" font-weight="normal" text-decoration="none" x="600" y="390">UNREGISTERED</text><text fill="#eeeeee" stroke="none" font-family="Arial" font-size="24px" font-style="normal" font-weight="normal" text-decoration="none" x="600" y="420">UNREGISTERED</text><text fill="#eeeeee" stroke="none" font-family="Arial" font-size="24px" font-style="normal" font-weight="normal" text-decoration="none" x="600" y="450">UNREGISTERED</text><text fill="#eeeeee" stroke="none" font-family="Arial" font-size="24px" font-style="normal" font-weight="normal" text-decoration="none" x="600" y="480">UNREGISTERED</text><text fill="#eeeeee" stroke="none" font-family="Arial" font-size="24px" font-style="normal" font-weight="normal" text-decoration="none" x="600" y="510">UNREGISTERED</text><text fill="#eeeeee" stroke="none" font-family="Arial" font-size="24px" font-style="normal" font-weight="normal" text-decoration="none" x="600" y="540">UNREGISTERED</text><text fill="#eeeeee" stroke="none" font-family="Arial" font-size="24px" font-style="normal" font-weight="normal" text-decoration="none" x="600" y="570">UNREGISTERED</text><text fill="#eeeeee" stroke="none" font-family="Arial" font-size="24px" font-style="normal" font-weight="normal" text-decoration="none" x="600" y="600">UNREGISTERED</text><text fill="#eeeeee" stroke="none" font-family="Arial" font-size="24px" font-style="normal" font-weight="normal" text-decoration="none" x="600" y="630">UNREGISTERED</text><text fill="#eeeeee" stroke="none" font-family="Arial" font-size="24px" font-style="normal" font-weight="normal" text-decoration="none" x="800" y="0">UNREGISTERED</text><text fill="#eeeeee" stroke="none" font-family="Arial" font-size="24px" font-style="normal" font-weight="normal" text-decoration="none" x="800" y="30">UNREGISTERED</text><text fill="#eeeeee" stroke="none" font-family="Arial" font-size="24px" font-style="normal" font-weight="normal" text-decoration="none" x="800" y="60">UNREGISTERED</text><text fill="#eeeeee" stroke="none" font-family="Arial" font-size="24px" font-style="normal" font-weight="normal" text-decoration="none" x="800" y="90">UNREGISTERED</text><text fill="#eeeeee" stroke="none" font-family="Arial" font-size="24px" font-style="normal" font-weight="normal" text-decoration="none" x="800" y="120">UNREGISTERED</text><text fill="#eeeeee" stroke="none" font-family="Arial" font-size="24px" font-style="normal" font-weight="normal" text-decoration="none" x="800" y="150">UNREGISTERED</text><text fill="#eeeeee" stroke="none" font-family="Arial" font-size="24px" font-style="normal" font-weight="normal" text-decoration="none" x="800" y="180">UNREGISTERED</text><text fill="#eeeeee" stroke="none" font-family="Arial" font-size="24px" font-style="normal" font-weight="normal" text-decoration="none" x="800" y="210">UNREGISTERED</text><text fill="#eeeeee" stroke="none" font-family="Arial" font-size="24px" font-style="normal" font-weight="normal" text-decoration="none" x="800" y="240">UNREGISTERED</text><text fill="#eeeeee" stroke="none" font-family="Arial" font-size="24px" font-style="normal" font-weight="normal" text-decoration="none" x="800" y="270">UNREGISTERED</text><text fill="#eeeeee" stroke="none" font-family="Arial" font-size="24px" font-style="normal" font-weight="normal" text-decoration="none" x="800" y="300">UNREGISTERED</text><text fill="#eeeeee" stroke="none" font-family="Arial" font-size="24px" font-style="normal" font-weight="normal" text-decoration="none" x="800" y="330">UNREGISTERED</text><text fill="#eeeeee" stroke="none" font-family="Arial" font-size="24px" font-style="normal" font-weight="normal" text-decoration="none" x="800" y="360">UNREGISTERED</text><text fill="#eeeeee" stroke="none" font-family="Arial" font-size="24px" font-style="normal" font-weight="normal" text-decoration="none" x="800" y="390">UNREGISTERED</text><text fill="#eeeeee" stroke="none" font-family="Arial" font-size="24px" font-style="normal" font-weight="normal" text-decoration="none" x="800" y="420">UNREGISTERED</text><text fill="#eeeeee" stroke="none" font-family="Arial" font-size="24px" font-style="normal" font-weight="normal" text-decoration="none" x="800" y="450">UNREGISTERED</text><text fill="#eeeeee" stroke="none" font-family="Arial" font-size="24px" font-style="normal" font-weight="normal" text-decoration="none" x="800" y="480">UNREGISTERED</text><text fill="#eeeeee" stroke="none" font-family="Arial" font-size="24px" font-style="normal" font-weight="normal" text-decoration="none" x="800" y="510">UNREGISTERED</text><text fill="#eeeeee" stroke="none" font-family="Arial" font-size="24px" font-style="normal" font-weight="normal" text-decoration="none" x="800" y="540">UNREGISTERED</text><text fill="#eeeeee" stroke="none" font-family="Arial" font-size="24px" font-style="normal" font-weight="normal" text-decoration="none" x="800" y="570">UNREGISTERED</text><text fill="#eeeeee" stroke="none" font-family="Arial" font-size="24px" font-style="normal" font-weight="normal" text-decoration="none" x="800" y="600">UNREGISTERED</text><text fill="#eeeeee" stroke="none" font-family="Arial" font-size="24px" font-style="normal" font-weight="normal" text-decoration="none" x="800" y="630">UNREGISTERED</text><g transform="translate(-14,-22) scale(1,1)"><rect fill="#ffffff" stroke="none" x="56" y="144" width="84.7490234375" height="45"/></g><g transform="translate(-14,-22) scale(1,1)"><path fill="none" stroke="#000000" d="M 56 144 L 140.7490234375 144 L 140.7490234375 189 L 56 189 L 56 144 Z Z" stroke-miterlimit="10"/></g><g transform="translate(-14,-22) scale(1,1)"><g><path fill="none" stroke="none"/><text fill="#000000" stroke="none" font-family="Arial" font-size="13px" font-style="normal" font-weight="normal" text-decoration="none" x="84.279541015625" y="166.5">input</text><text fill="#000000" stroke="none" font-family="Arial" font-size="13px" font-style="normal" font-weight="normal" text-decoration="none" x="65.5" y="179.5">parameters</text></g></g><g transform="translate(-14,-22) scale(1,1)"><g><path fill="none" stroke="none"/><text fill="#000000" stroke="none" font-family="Arial" font-size="24px" font-style="normal" font-weight="normal" text-decoration="none" x="61" y="61">Algorithms to train a neural networK</text></g></g><g transform="translate(-14,-22) scale(1,1)"><path fill="#ffffff" stroke="none" d="M 24 208 L 165 208 L 175 218 L 175 391 L 24 391 L 24 208"/></g><g transform="translate(-14,-22) scale(1,1)"><path fill="none" stroke="#000000" d="M 24 208 L 165 208 L 175 218 L 175 391 L 24 391 L 24 208 L 24 208" stroke-miterlimit="10"/></g><g transform="translate(-14,-22) scale(1,1)"><path fill="none" stroke="#000000" d="M 165 208 L 165 218 L 175 218 L 165 208" stroke-miterlimit="10"/></g><g transform="translate(-14,-22) scale(1,1)"><g><path fill="none" stroke="none"/><text fill="#000000" stroke="none" font-family="Arial" font-size="13px" font-style="normal" font-weight="normal" text-decoration="none" x="29" y="226">'Copper (Cu)'      </text><text fill="#000000" stroke="none" font-family="Arial" font-size="13px" font-style="normal" font-weight="normal" text-decoration="none" x="29" y="239">'Oxygen (O)'      </text><text fill="#000000" stroke="none" font-family="Arial" font-size="13px" font-style="normal" font-weight="normal" text-decoration="none" x="29" y="252">'Potassium (K)'           </text><text fill="#000000" stroke="none" font-family="Arial" font-size="13px" font-style="normal" font-weight="normal" text-decoration="none" x="29" y="265">'Iron (Fe)'                        </text></g></g><g transform="translate(-14,-22) scale(1,1)"><g><path fill="none" stroke="none"/><text fill="#000000" stroke="none" font-family="Arial" font-size="13px" font-style="normal" font-weight="normal" text-decoration="none" x="29" y="280">'Sulphur (S)'        </text></g></g><g transform="translate(-14,-22) scale(1,1)"><g><path fill="none" stroke="none"/><text fill="#000000" stroke="none" font-family="Arial" font-size="13px" font-style="normal" font-weight="normal" text-decoration="none" x="29" y="295"> 'Maganese (M)'      </text><text fill="#000000" stroke="none" font-family="Arial" font-size="13px" font-style="normal" font-weight="normal" text-decoration="none" x="29" y="308">'Calcium (Ca)'      </text><text fill="#000000" stroke="none" font-family="Arial" font-size="13px" font-style="normal" font-weight="normal" text-decoration="none" x="29" y="321">'Boron (B)'      </text><text fill="#000000" stroke="none" font-family="Arial" font-size="13px" font-style="normal" font-weight="normal" text-decoration="none" x="29" y="334">'Magnesium (Mg)'      </text><text fill="#000000" stroke="none" font-family="Arial" font-size="13px" font-style="normal" font-weight="normal" text-decoration="none" x="29" y="347">'Chlorine (Cl)'      </text><text fill="#000000" stroke="none" font-family="Arial" font-size="13px" font-style="normal" font-weight="normal" text-decoration="none" x="29" y="360">'Molybdenum (Mo)'      </text><text fill="#000000" stroke="none" font-family="Arial" font-size="13px" font-style="normal" font-weight="normal" text-decoration="none" x="29" y="373">'Cobalt (Co)</text></g></g><g transform="translate(-14,-22) scale(1,1)"><rect fill="#ffffff" stroke="none" x="312" y="136" width="464" height="48"/></g><g transform="translate(-14,-22) scale(1,1)"><path fill="none" stroke="#000000" d="M 312 136 L 776 136 L 776 184 L 312 184 L 312 136 Z Z" stroke-miterlimit="10"/></g><g transform="translate(-14,-22) scale(1,1)"><g><path fill="none" stroke="none"/><text fill="#000000" stroke="none" font-family="Arial" font-size="13px" font-style="normal" font-weight="normal" text-decoration="none" x="442.478759765625" y="158.5">algorithms to train a neural network</text></g></g><g transform="translate(-14,-22) scale(1,1)"><path fill="#ffffff" stroke="none" d="M 494 224 L 648 224 L 618 269 L 464 269 L 494 224"/></g><g transform="translate(-14,-22) scale(1,1)"><path fill="none" stroke="#000000" d="M 494 224 L 648 224 L 618 269 L 464 269 L 494 224 L 494 224" stroke-miterlimit="10"/></g><g transform="translate(-14,-22) scale(1,1)"><g><path fill="none" stroke="none"/><text fill="#000000" stroke="none" font-family="Arial" font-size="13px" font-style="normal" font-weight="normal" text-decoration="none" x="531.79638671875" y="246.5">Problem</text><text fill="#000000" stroke="none" font-family="Arial" font-size="13px" font-style="normal" font-weight="normal" text-decoration="none" x="523.845947265625" y="259.5">formulation</text></g></g><g transform="translate(-14,-22) scale(1,1)"><path fill="#ffffff" stroke="none" d="M 287 272 L 328.63720703125 272 Q 351.63720703125 272 351.63720703125 295 L 351.63720703125 294 Q 351.63720703125 317 328.63720703125 317 L 287 317 Q 264 317 264 294 L 264 295 Q 264 272 287 272 Z"/></g><g transform="translate(-14,-22) scale(1,1)"><path fill="none" stroke="#000000" d="M 287 272 L 328.63720703125 272 Q 351.63720703125 272 351.63720703125 295 L 351.63720703125 294 Q 351.63720703125 317 328.63720703125 317 L 287 317 Q 264 317 264 294 L 264 295 Q 264 272 287 272 Z" stroke-miterlimit="10"/></g><g transform="translate(-14,-22) scale(1,1)"><g><path fill="none" stroke="none"/><text fill="#000000" stroke="none" font-family="Arial" font-size="13px" font-style="normal" font-weight="normal" text-decoration="none" x="282.88818359375" y="294.5">Gradient</text><text fill="#000000" stroke="none" font-family="Arial" font-size="13px" font-style="normal" font-weight="normal" text-decoration="none" x="285.052734375" y="307.5">descent</text></g></g><g transform="translate(-14,-22) scale(1,1)"><path fill="#ffffff" stroke="none" d="M 335 328 L 376.63720703125 328 Q 399.63720703125 328 399.63720703125 351 L 399.63720703125 350 Q 399.63720703125 373 376.63720703125 373 L 335 373 Q 312 373 312 350 L 312 351 Q 312 328 335 328 Z"/></g><g transform="translate(-14,-22) scale(1,1)"><path fill="none" stroke="#000000" d="M 335 328 L 376.63720703125 328 Q 399.63720703125 328 399.63720703125 351 L 399.63720703125 350 Q 399.63720703125 373 376.63720703125 373 L 335 373 Q 312 373 312 350 L 312 351 Q 312 328 335 328 Z" stroke-miterlimit="10"/></g><g transform="translate(-14,-22) scale(1,1)"><g><path fill="none" stroke="none"/><text fill="#000000" stroke="none" font-family="Arial" font-size="13px" font-style="normal" font-weight="normal" text-decoration="none" x="330.529541015625" y="350.5">Newtons</text><text fill="#000000" stroke="none" font-family="Arial" font-size="13px" font-style="normal" font-weight="normal" text-decoration="none" x="334.13818359375" y="363.5">method</text></g></g><g transform="translate(-14,-22) scale(1,1)"><path fill="#ffffff" stroke="none" d="M 503 384 L 544.63720703125 384 Q 567.63720703125 384 567.63720703125 407 L 567.63720703125 406 Q 567.63720703125 429 544.63720703125 429 L 503 429 Q 480 429 480 406 L 480 407 Q 480 384 503 384 Z"/></g><g transform="translate(-14,-22) scale(1,1)"><path fill="none" stroke="#000000" d="M 503 384 L 544.63720703125 384 Q 567.63720703125 384 567.63720703125 407 L 567.63720703125 406 Q 567.63720703125 429 544.63720703125 429 L 503 429 Q 480 429 480 406 L 480 407 Q 480 384 503 384 Z" stroke-miterlimit="10"/></g><g transform="translate(-14,-22) scale(1,1)"><g><path fill="none" stroke="none"/><text fill="#000000" stroke="none" font-family="Arial" font-size="13px" font-style="normal" font-weight="normal" text-decoration="none" x="494.1845703125" y="406.5">Conjugate</text><text fill="#000000" stroke="none" font-family="Arial" font-size="13px" font-style="normal" font-weight="normal" text-decoration="none" x="500.3291015625" y="419.5">gradient</text></g></g><g transform="translate(-14,-22) scale(1,1)"><path fill="#ffffff" stroke="none" d="M 711 336 L 766.3671875 336 Q 789.3671875 336 789.3671875 359 L 789.3671875 358 Q 789.3671875 381 766.3671875 381 L 711 381 Q 688 381 688 358 L 688 359 Q 688 336 711 336 Z"/></g><g transform="translate(-14,-22) scale(1,1)"><path fill="none" stroke="#000000" d="M 711 336 L 766.3671875 336 Q 789.3671875 336 789.3671875 359 L 789.3671875 358 Q 789.3671875 381 766.3671875 381 L 711 381 Q 688 381 688 358 L 688 359 Q 688 336 711 336 Z" stroke-miterlimit="10"/></g><g transform="translate(-14,-22) scale(1,1)"><g><path fill="none" stroke="none"/><text fill="#000000" stroke="none" font-family="Arial" font-size="13px" font-style="normal" font-weight="normal" text-decoration="none" x="697.5" y="358.5">Quasi-Newton</text><text fill="#000000" stroke="none" font-family="Arial" font-size="13px" font-style="normal" font-weight="normal" text-decoration="none" x="717.003173828125" y="371.5">method</text></g></g><g transform="translate(-14,-22) scale(1,1)"><path fill="#ffffff" stroke="none" d="M 735 280 L 833.01708984375 280 Q 856.01708984375 280 856.01708984375 303 L 856.01708984375 302 Q 856.01708984375 325 833.01708984375 325 L 735 325 Q 712 325 712 302 L 712 303 Q 712 280 735 280 Z"/></g><g transform="translate(-14,-22) scale(1,1)"><path fill="none" stroke="#000000" d="M 735 280 L 833.01708984375 280 Q 856.01708984375 280 856.01708984375 303 L 856.01708984375 302 Q 856.01708984375 325 833.01708984375 325 L 735 325 Q 712 325 712 302 L 712 303 Q 712 280 735 280 Z" stroke-miterlimit="10"/></g><g transform="translate(-14,-22) scale(1,1)"><g><path fill="none" stroke="none"/><text fill="#000000" stroke="none" font-family="Arial" font-size="13px" font-style="normal" font-weight="normal" text-decoration="none" x="721.5" y="302.5">Levenberg-Marquardt</text><text fill="#000000" stroke="none" font-family="Arial" font-size="13px" font-style="normal" font-weight="normal" text-decoration="none" x="757.275390625" y="315.5">algorithm</text></g></g><g transform="translate(-14,-22) scale(1,1)"><path fill="#ffffff" stroke="none" d="M 495 512 L 566.2744140625 512 Q 589.2744140625 512 589.2744140625 535 L 589.2744140625 534 Q 589.2744140625 557 566.2744140625 557 L 495 557 Q 472 557 472 534 L 472 535 Q 472 512 495 512 Z"/></g><g transform="translate(-14,-22) scale(1,1)"><path fill="none" stroke="#000000" d="M 495 512 L 566.2744140625 512 Q 589.2744140625 512 589.2744140625 535 L 589.2744140625 534 Q 589.2744140625 557 566.2744140625 557 L 495 557 Q 472 557 472 534 L 472 535 Q 472 512 495 512 Z" stroke-miterlimit="10"/></g><g transform="translate(-14,-22) scale(1,1)"><g><path fill="none" stroke="none"/><text fill="#000000" stroke="none" font-family="Arial" font-size="13px" font-style="normal" font-weight="normal" text-decoration="none" x="481.5" y="534.5">One-dimensional</text><text fill="#000000" stroke="none" font-family="Arial" font-size="13px" font-style="normal" font-weight="normal" text-decoration="none" x="495.95361328125" y="547.5">optimization</text></g></g><g transform="translate(-14,-22) scale(1,1)"><path fill="#ffffff" stroke="none" d="M 495 584 L 564.82080078125 584 Q 587.82080078125 584 587.82080078125 607 L 587.82080078125 606 Q 587.82080078125 629 564.82080078125 629 L 495 629 Q 472 629 472 606 L 472 607 Q 472 584 495 584 Z"/></g><g transform="translate(-14,-22) scale(1,1)"><path fill="none" stroke="#000000" d="M 495 584 L 564.82080078125 584 Q 587.82080078125 584 587.82080078125 607 L 587.82080078125 606 Q 587.82080078125 629 564.82080078125 629 L 495 629 Q 472 629 472 606 L 472 607 Q 472 584 495 584 Z" stroke-miterlimit="10"/></g><g transform="translate(-14,-22) scale(1,1)"><g><path fill="none" stroke="none"/><text fill="#000000" stroke="none" font-family="Arial" font-size="13px" font-style="normal" font-weight="normal" text-decoration="none" x="481.5" y="606.5">Multidimensional</text><text fill="#000000" stroke="none" font-family="Arial" font-size="13px" font-style="normal" font-weight="normal" text-decoration="none" x="495.226806640625" y="619.5">optimization</text></g></g><g transform="translate(-14,-22) scale(1,1)"><path fill="#ffffff" stroke="#000000" d="M 96 540 C 96 537.7908608 114.3294340546875 536 136.93994140625 536 C 159.5504487578125 536 177.8798828125 537.7908608 177.8798828125 540 L 177.8798828125 564 C 177.8798828125 566.2091392 159.5504487578125 568 136.93994140625 568 C 114.3294340546875 568 96 566.2091392 96 564 L 96 540 Z" stroke-miterlimit="10"/></g><g transform="translate(-14,-22) scale(1,1)"><path fill="none" stroke="#000000" d="M 96 540 C 96 542.2091392 114.3294340546875 544 136.93994140625 544 C 159.5504487578125 544 177.8798828125 542.2091392 177.8798828125 540" stroke-miterlimit="10"/></g><g transform="translate(-14,-22) scale(1,1)"><g><path fill="none" stroke="none"/><text fill="#000000" stroke="none" font-family="Arial" font-size="13px" font-style="normal" font-weight="normal" text-decoration="none" x="119.96630859375" y="560.5">mysql</text></g></g><g transform="translate(-14,-22) scale(1,1)"><path fill="#ffffff" stroke="#000000" d="M 192 540 C 192 537.7908608 210.3294340546875 536 232.93994140625 536 C 255.5504487578125 536 273.8798828125 537.7908608 273.8798828125 540 L 273.8798828125 564 C 273.8798828125 566.2091392 255.5504487578125 568 232.93994140625 568 C 210.3294340546875 568 192 566.2091392 192 564 L 192 540 Z" stroke-miterlimit="10"/></g><g transform="translate(-14,-22) scale(1,1)"><path fill="none" stroke="#000000" d="M 192 540 C 192 542.2091392 210.3294340546875 544 232.93994140625 544 C 255.5504487578125 544 273.8798828125 542.2091392 273.8798828125 540" stroke-miterlimit="10"/></g><g transform="translate(-14,-22) scale(1,1)"><g><path fill="none" stroke="none"/><text fill="#000000" stroke="none" font-family="Arial" font-size="13px" font-style="normal" font-weight="normal" text-decoration="none" x="204.035888671875" y="560.5">mongoDB</text></g></g><g transform="translate(-14,-22) scale(1,1)"><path fill="#ffffff" stroke="#000000" d="M 144 580 C 144 577.7908608 162.3294340546875 576 184.93994140625 576 C 207.5504487578125 576 225.8798828125 577.7908608 225.8798828125 580 L 225.8798828125 604 C 225.8798828125 606.2091392 207.5504487578125 608 184.93994140625 608 C 162.3294340546875 608 144 606.2091392 144 604 L 144 580 Z" stroke-miterlimit="10"/></g><g transform="translate(-14,-22) scale(1,1)"><path fill="none" stroke="#000000" d="M 144 580 C 144 582.2091392 162.3294340546875 584 184.93994140625 584 C 207.5504487578125 584 225.8798828125 582.2091392 225.8798828125 580" stroke-miterlimit="10"/></g><g transform="translate(-14,-22) scale(1,1)"><g><path fill="none" stroke="none"/><text fill="#000000" stroke="none" font-family="Arial" font-size="13px" font-style="normal" font-weight="normal" text-decoration="none" x="173.015869140625" y="600.5">hive</text></g></g><g transform="translate(-14,-22) scale(1,1)"><path fill="#ffffff" stroke="#000000" d="M 585 88 C 593.284272 88 600 95.1634432 600 104 C 600 112.8365568 593.284272 120 585 120 L 495 120 C 486.715728 120 480 112.8365568 480 104 C 480 95.1634432 486.715728 88 495 88 L 585 88 Z" stroke-miterlimit="10"/></g><g transform="translate(-14,-22) scale(1,1)"><path fill="none" stroke="#000000" d="M 585 88 C 576.715728 88 570 95.1634432 570 104 C 570 112.8365568 576.715728 120 585 120" stroke-miterlimit="10"/></g><g transform="translate(-14,-22) scale(1,1)"><g><path fill="none" stroke="none"/><text fill="#000000" stroke="none" font-family="Arial" font-size="13px" font-style="normal" font-weight="normal" text-decoration="none" x="509.013671875" y="110.5">DataSet</text></g></g><g transform="translate(-14,-22) scale(1,1)"><path fill="#ffffff" stroke="none" d="M 128 616 L 245 616 L 255 626 L 255 655 L 128 655 L 128 616"/></g><g transform="translate(-14,-22) scale(1,1)"><path fill="none" stroke="#000000" d="M 128 616 L 245 616 L 255 626 L 255 655 L 128 655 L 128 616 L 128 616" stroke-miterlimit="10"/></g><g transform="translate(-14,-22) scale(1,1)"><path fill="none" stroke="#000000" d="M 245 616 L 245 626 L 255 626 L 245 616" stroke-miterlimit="10"/></g><g transform="translate(-14,-22) scale(1,1)"><g><path fill="none" stroke="none"/><text fill="#000000" stroke="none" font-family="Arial" font-size="13px" font-style="normal" font-weight="normal" text-decoration="none" x="133" y="634">Big-data  Scalling</text><text fill="#000000" stroke="none" font-family="Arial" font-size="13px" font-style="normal" font-weight="normal" text-decoration="none" x="133" y="647">database</text></g></g><g transform="translate(-14,-22) scale(1,1)"><path fill="none" stroke="#000000" d="M 141 165 L 312 165" stroke-miterlimit="10"/></g><g transform="translate(-14,-22) scale(1,1)"><path fill="#000000" stroke="none" d="M 301.83732514237585 169.209517756016 L 312 165 L 301.83732514237585 160.790482243984"/></g><g transform="translate(-14,-22) scale(1,1)"><path fill="none" stroke="#000000" d="M 301.83732514237585 169.209517756016 L 312 165 L 301.83732514237585 160.790482243984 L 301.83732514237585 169.209517756016" stroke-miterlimit="10"/></g><g transform="translate(-14,-22) scale(1,1)"><g><path fill="none" stroke="none"/><text fill="#000000" stroke="none" font-family="Arial" font-size="13px" font-style="normal" font-weight="normal" text-decoration="none" x="198.5" y="156.5">Requests</text></g></g><g transform="translate(-14,-22) scale(1,1)"><path fill="none" stroke="#000000" d="M 541 184 L 541 224" stroke-miterlimit="10"/></g><g transform="translate(-14,-22) scale(1,1)"><path fill="#000000" stroke="none" d="M 536.790482243984 213.83732514237585 L 541 224 L 545.209517756016 213.83732514237585"/></g><g transform="translate(-14,-22) scale(1,1)"><path fill="none" stroke="#000000" d="M 536.790482243984 213.83732514237585 L 541 224 L 545.209517756016 213.83732514237585 L 536.790482243984 213.83732514237585" stroke-miterlimit="10"/></g><g transform="translate(-14,-22) scale(1,1)"><g><path fill="none" stroke="none"/><text fill="#000000" stroke="none" font-family="Arial" font-size="13px" font-style="normal" font-weight="normal" text-decoration="none" x="557.5" y="212.5">Processing data </text></g></g><g transform="translate(-14,-22) scale(1,1)"><path fill="none" stroke="#000000" d="M 465 269 L 465 286 M 465 286 A 8 8 0 0 1 457 294 L 352 294" stroke-miterlimit="10"/></g><g transform="translate(-14,-22) scale(1,1)"><path fill="#000000" stroke="none" d="M 362.16267485762415 289.790482243984 L 352 294 L 362.16267485762415 298.209517756016"/></g><g transform="translate(-14,-22) scale(1,1)"><path fill="none" stroke="#000000" d="M 362.16267485762415 289.790482243984 L 352 294 L 362.16267485762415 298.209517756016 L 362.16267485762415 289.790482243984" stroke-miterlimit="10"/></g><g transform="translate(-14,-22) scale(1,1)"><path fill="none" stroke="#000000" d="M 497 269 L 497 342 M 497 342 A 8 8 0 0 1 489 350 L 400 350" stroke-miterlimit="10"/></g><g transform="translate(-14,-22) scale(1,1)"><path fill="#000000" stroke="none" d="M 410.16267485762415 345.790482243984 L 400 350 L 410.16267485762415 354.209517756016"/></g><g transform="translate(-14,-22) scale(1,1)"><path fill="none" stroke="#000000" d="M 410.16267485762415 345.790482243984 L 400 350 L 410.16267485762415 354.209517756016 L 410.16267485762415 345.790482243984" stroke-miterlimit="10"/></g><g transform="translate(-14,-22) scale(1,1)"><path fill="none" stroke="#000000" d="M 529 269 L 529 384" stroke-miterlimit="10"/></g><g transform="translate(-14,-22) scale(1,1)"><path fill="#000000" stroke="none" d="M 524.790482243984 373.83732514237585 L 529 384 L 533.209517756016 373.83732514237585"/></g><g transform="translate(-14,-22) scale(1,1)"><path fill="none" stroke="#000000" d="M 524.790482243984 373.83732514237585 L 529 384 L 533.209517756016 373.83732514237585 L 524.790482243984 373.83732514237585" stroke-miterlimit="10"/></g><g transform="translate(-14,-22) scale(1,1)"><path fill="none" stroke="#000000" d="M 564 269 L 564 350 M 564 350 A 8 8 0 0 0 572 358 L 688 358" stroke-miterlimit="10"/></g><g transform="translate(-14,-22) scale(1,1)"><path fill="#000000" stroke="none" d="M 677.8373251423759 362.209517756016 L 688 358 L 677.8373251423758 353.790482243984"/></g><g transform="translate(-14,-22) scale(1,1)"><path fill="none" stroke="#000000" d="M 677.8373251423759 362.209517756016 L 688 358 L 677.8373251423758 353.790482243984 L 677.8373251423759 362.209517756016" stroke-miterlimit="10"/></g><g transform="translate(-14,-22) scale(1,1)"><path fill="none" stroke="#000000" d="M 600 269 L 600 294 M 600 294 A 8 8 0 0 0 608 302 L 712 302" stroke-miterlimit="10"/></g><g transform="translate(-14,-22) scale(1,1)"><path fill="#000000" stroke="none" d="M 701.8373251423759 306.209517756016 L 712 302 L 701.8373251423758 297.790482243984"/></g><g transform="translate(-14,-22) scale(1,1)"><path fill="none" stroke="#000000" d="M 701.8373251423759 306.209517756016 L 712 302 L 701.8373251423758 297.790482243984 L 701.8373251423759 306.209517756016" stroke-miterlimit="10"/></g><g transform="translate(-14,-22) scale(1,1)"><path fill="none" stroke="#000000" d="M 288 317 L 288 456 M 288 456 A 8 8 0 0 0 296 464 L 520 464 M 520 464 A 8 8 0 0 1 528 472 L 528 512" stroke-miterlimit="10"/></g><g transform="translate(-14,-22) scale(1,1)"><path fill="#000000" stroke="none" d="M 523.790482243984 501.83732514237585 L 528 512 L 532.209517756016 501.83732514237585"/></g><g transform="translate(-14,-22) scale(1,1)"><path fill="none" stroke="#000000" d="M 523.790482243984 501.83732514237585 L 528 512 L 532.209517756016 501.83732514237585 L 523.790482243984 501.83732514237585" stroke-miterlimit="10"/></g><g transform="translate(-14,-22) scale(1,1)"><path fill="none" stroke="#000000" d="M 368 373 L 368 456 M 368 456 A 8 8 0 0 0 376 464 L 520 464 M 520 464 A 8 8 0 0 1 528 472 L 528 512" stroke-miterlimit="10"/></g><g transform="translate(-14,-22) scale(1,1)"><path fill="#000000" stroke="none" d="M 523.790482243984 501.83732514237585 L 528 512 L 532.209517756016 501.83732514237585"/></g><g transform="translate(-14,-22) scale(1,1)"><path fill="none" stroke="#000000" d="M 523.790482243984 501.83732514237585 L 528 512 L 532.209517756016 501.83732514237585 L 523.790482243984 501.83732514237585" stroke-miterlimit="10"/></g><g transform="translate(-14,-22) scale(1,1)"><path fill="none" stroke="#000000" d="M 528 429 L 528 512" stroke-miterlimit="10"/></g><g transform="translate(-14,-22) scale(1,1)"><path fill="#000000" stroke="none" d="M 523.790482243984 501.83732514237585 L 528 512 L 532.209517756016 501.83732514237585"/></g><g transform="translate(-14,-22) scale(1,1)"><path fill="none" stroke="#000000" d="M 523.790482243984 501.83732514237585 L 528 512 L 532.209517756016 501.83732514237585 L 523.790482243984 501.83732514237585" stroke-miterlimit="10"/></g><g transform="translate(-14,-22) scale(1,1)"><path fill="none" stroke="#000000" d="M 741 381 L 741 456 M 741 456 A 8 8 0 0 1 733 464 L 536 464 M 536 464 A 8 8 0 0 0 528 472 L 528 512" stroke-miterlimit="10"/></g><g transform="translate(-14,-22) scale(1,1)"><path fill="#000000" stroke="none" d="M 523.790482243984 501.83732514237585 L 528 512 L 532.209517756016 501.83732514237585"/></g><g transform="translate(-14,-22) scale(1,1)"><path fill="none" stroke="#000000" d="M 523.790482243984 501.83732514237585 L 528 512 L 532.209517756016 501.83732514237585 L 523.790482243984 501.83732514237585" stroke-miterlimit="10"/></g><g transform="translate(-14,-22) scale(1,1)"><path fill="none" stroke="#000000" d="M 848 325 L 848 456 M 848 456 A 8 8 0 0 1 840 464 L 536 464 M 536 464 A 8 8 0 0 0 528 472 L 528 512" stroke-miterlimit="10"/></g><g transform="translate(-14,-22) scale(1,1)"><path fill="#000000" stroke="none" d="M 523.790482243984 501.83732514237585 L 528 512 L 532.209517756016 501.83732514237585"/></g><g transform="translate(-14,-22) scale(1,1)"><path fill="none" stroke="#000000" d="M 523.790482243984 501.83732514237585 L 528 512 L 532.209517756016 501.83732514237585 L 523.790482243984 501.83732514237585" stroke-miterlimit="10"/></g><g transform="translate(-14,-22) scale(1,1)"><path fill="none" stroke="#000000" d="M 530 557 L 530 584" stroke-miterlimit="10"/></g><g transform="translate(-14,-22) scale(1,1)"><path fill="#000000" stroke="none" d="M 525.790482243984 573.8373251423759 L 530 584 L 534.209517756016 573.8373251423759"/></g><g transform="translate(-14,-22) scale(1,1)"><path fill="none" stroke="#000000" d="M 525.790482243984 573.8373251423759 L 530 584 L 534.209517756016 573.8373251423759 L 525.790482243984 573.8373251423759" stroke-miterlimit="10"/></g><g transform="translate(-14,-22) scale(1,1)"><path fill="none" stroke="#000000" d="M 472 604 L 226 604" stroke-miterlimit="10"/></g><g transform="translate(-14,-22) scale(1,1)"><path fill="#000000" stroke="none" d="M 236.16267485762415 599.790482243984 L 226 604 L 236.16267485762415 608.209517756016"/></g><g transform="translate(-14,-22) scale(1,1)"><path fill="none" stroke="#000000" d="M 236.16267485762415 599.790482243984 L 226 604 L 236.16267485762415 608.209517756016 L 236.16267485762415 599.790482243984" stroke-miterlimit="10"/></g><g transform="translate(-14,-22) scale(1,1)"><path fill="none" stroke="#000000" d="M 226 604 L 472 604" stroke-miterlimit="10"/></g><g transform="translate(-14,-22) scale(1,1)"><path fill="#000000" stroke="none" d="M 461.83732514237585 608.209517756016 L 472 604 L 461.83732514237585 599.790482243984"/></g><g transform="translate(-14,-22) scale(1,1)"><path fill="none" stroke="#000000" d="M 461.83732514237585 608.209517756016 L 472 604 L 461.83732514237585 599.790482243984 L 461.83732514237585 608.209517756016" stroke-miterlimit="10"/></g><g transform="translate(-14,-22) scale(1,1)"><g><path fill="none" stroke="none"/><text fill="#000000" stroke="none" font-family="Arial" font-size="13px" font-style="normal" font-weight="normal" text-decoration="none" x="308.5" y="595.5">Update model</text></g></g><g transform="translate(-14,-22) scale(1,1)"><rect fill="#ffffff" stroke="none" x="136" y="440" width="73.18994140625" height="58"/></g><g transform="translate(-14,-22) scale(1,1)"><path fill="none" stroke="#000000" d="M 136 440 L 209.18994140625 440 L 209.18994140625 498 L 136 498 L 136 440 Z Z" stroke-miterlimit="10"/></g><g transform="translate(-14,-22) scale(1,1)"><g><path fill="none" stroke="none"/><text fill="#000000" stroke="none" font-family="Arial" font-size="13px" font-style="normal" font-weight="normal" text-decoration="none" x="162.1181640625" y="462.5">API</text><text fill="#000000" stroke="none" font-family="Arial" font-size="13px" font-style="normal" font-weight="normal" text-decoration="none" x="154.167724609375" y="475.5">calling</text><text fill="#000000" stroke="none" font-family="Arial" font-size="13px" font-style="normal" font-weight="normal" text-decoration="none" x="155.259521484375" y="488.5">JSON</text></g></g><g transform="translate(-14,-22) scale(1,1)"><path fill="none" stroke="#000000" d="M 159 536 L 159 498" stroke-miterlimit="10"/></g><g transform="translate(-14,-22) scale(1,1)"><path fill="#000000" stroke="none" d="M 163.209517756016 508.16267485762415 L 159 498 L 154.790482243984 508.16267485762415"/></g><g transform="translate(-14,-22) scale(1,1)"><path fill="none" stroke="#000000" d="M 163.209517756016 508.16267485762415 L 159 498 L 154.790482243984 508.16267485762415 L 163.209517756016 508.16267485762415" stroke-miterlimit="10"/></g><g transform="translate(-14,-22) scale(1,1)"><path fill="none" stroke="#000000" d="M 200 440 L 200 184 M 200 184 A 8 8 0 0 0 192 176 L 141 176" stroke-miterlimit="10"/></g><g transform="translate(-14,-22) scale(1,1)"><path fill="#000000" stroke="none" d="M 151.16267485762415 171.790482243984 L 141 176 L 151.16267485762415 180.209517756016"/></g><g transform="translate(-14,-22) scale(1,1)"><path fill="none" stroke="#000000" d="M 151.16267485762415 171.790482243984 L 141 176 L 151.16267485762415 180.209517756016 L 151.16267485762415 171.790482243984" stroke-miterlimit="10"/></g><g transform="translate(-14,-22) scale(1,1)"><g><path fill="none" stroke="none"/><text fill="#000000" stroke="none" font-family="Arial" font-size="13px" font-style="normal" font-weight="normal" text-decoration="none" x="215.5" y="219.5">json response format</text></g></g><g transform="translate(-14,-22) scale(1,1)"><g><path fill="none" stroke="none"/><text fill="#000000" stroke="none" font-family="Arial" font-size="13px" font-style="normal" font-weight="normal" text-decoration="none" x="725" y="234">algorithms to train</text></g></g><g transform="translate(-14,-22) scale(1,1)"><path fill="none" stroke="#000000" d="M 541 120 L 541 136" stroke-miterlimit="10"/></g><g transform="translate(-14,-22) scale(1,1)"><path fill="#000000" stroke="none" d="M 536.790482243984 125.83732514237585 L 541 136 L 545.209517756016 125.83732514237585"/></g><g transform="translate(-14,-22) scale(1,1)"><path fill="none" stroke="#000000" d="M 536.790482243984 125.83732514237585 L 541 136 L 545.209517756016 125.83732514237585 L 536.790482243984 125.83732514237585" stroke-miterlimit="10"/></g></g></svg>