<svg version="1.1" xmlns="http://www.w3.org/2000/svg" xmlns:xlink="http://www.w3.org/1999/xlink" width="950.1962890625" height="668"><defs/><g><text fill="#eeeeee" stroke="none" font-family="Arial" font-size="24px" font-style="normal" font-weight="normal" text-decoration="none" x="0" y="0">UNREGISTERED</text><text fill="#eeeeee" stroke="none" font-family="Arial" font-size="24px" font-style="normal" font-weight="normal" text-decoration="none" x="0" y="30">UNREGISTERED</text><text fill="#eeeeee" stroke="none" font-family="Arial" font-size="24px" font-style="normal" font-weight="normal" text-decoration="none" x="0" y="60">UNREGISTERED</text><text fill="#eeeeee" stroke="none" font-family="Arial" font-size="24px" font-style="normal" font-weight="normal" text-decoration="none" x="0" y="90">UNREGISTERED</text><text fill="#eeeeee" stroke="none" font-family="Arial" font-size="24px" font-style="normal" font-weight="normal" text-decoration="none" x="0" y="120">UNREGISTERED</text><text fill="#eeeeee" stroke="none" font-family="Arial" font-size="24px" font-style="normal" font-weight="normal" text-decoration="none" x="0" y="150">UNREGISTERED</text><text fill="#eeeeee" stroke="none" font-family="Arial" font-size="24px" font-style="normal" font-weight="normal" text-decoration="none" x="0" y="180">UNREGISTERED</text><text fill="#eeeeee" stroke="none" font-family="Arial" font-size="24px" font-style="normal" font-weight="normal" text-decoration="none" x="0" y="210">UNREGISTERED</text><text fill="#eeeeee" stroke="none" font-family="Arial" font-size="24px" font-style="normal" font-weight="normal" text-decoration="none" x="0" y="240">UNREGISTERED</text><text fill="#eeeeee" stroke="none" font-family="Arial" font-size="24px" font-style="normal" font-weight="normal" text-decoration="none" x="0" y="270">UNREGISTERED</text><text fill="#eeeeee" stroke="none" font-family="Arial" font-size="24px" font-style="normal" font-weight="normal" text-decoration="none" x="0" y="300">UNREGISTERED</text><text fill="#eeeeee" stroke="none" font-family="Arial" font-size="24px" font-style="normal" font-weight="normal" text-decoration="none" x="0" y="330">UNREGISTERED</text><text fill="#eeeeee" stroke="none" font-family="Arial" font-size="24px" font-style="normal" font-weight="normal" text-decoration="none" x="0" y="360">UNREGISTERED</text><text fill="#eeeeee" stroke="none" font-family="Arial" font-size="24px" font-style="normal" font-weight="normal" text-decoration="none" x="0" y="390">UNREGISTERED</text><text fill="#eeeeee" stroke="none" font-family="Arial" font-size="24px" font-style="normal" font-weight="normal" text-decoration="none" x="0" y="420">UNREGISTERED</text><text fill="#eeeeee" stroke="none" font-family="Arial" font-size="24px" font-style="normal" font-weight="normal" text-decoration="none" x="0" y="450">UNREGISTERED</text><text fill="#eeeeee" stroke="none" font-family="Arial" font-size="24px" font-style="normal" font-weight="normal" text-decoration="none" x="0" y="480">UNREGISTERED</text><text fill="#eeeeee" stroke="none" font-family="Arial" font-size="24px" font-style="normal" font-weight="normal" text-decoration="none" x="0" y="510">UNREGISTERED</text><text fill="#eeeeee" stroke="none" font-family="Arial" font-size="24px" font-style="normal" font-weight="normal" text-decoration="none" x="0" y="540">UNREGISTERED</text><text fill="#eeeeee" stroke="none" font-family="Arial" font-size="24px" font-style="normal" font-weight="normal" text-decoration="none" x="0" y="570">UNREGISTERED</text><text fill="#eeeeee" stroke="none" font-family="Arial" font-size="24px" font-style="normal" font-weight="normal" text-decoration="none" x="0" y="600">UNREGISTERED</text><text fill="#eeeeee" stroke="none" font-family="Arial" font-size="24px" font-style="normal" font-weight="normal" text-decoration="none" x="0" y="630">UNREGISTERED</text><text fill="#eeeeee" stroke="none" font-family="Arial" font-size="24px" font-style="normal" font-weight="normal" text-decoration="none" x="0" y="660">UNREGISTERED</text><text fill="#eeeeee" stroke="none" font-family="Arial" font-size="24px" font-style="normal" font-weight="normal" text-decoration="none" x="200" y="0">UNREGISTERED</text><text fill="#eeeeee" stroke="none" font-family="Arial" font-size="24px" font-style="normal" font-weight="normal" text-decoration="none" x="200" y="30">UNREGISTERED</text><text fill="#eeeeee" stroke="none" font-family="Arial" font-size="24px" font-style="normal" font-weight="normal" text-decoration="none" x="200" y="60">UNREGISTERED</text><text fill="#eeeeee" stroke="none" font-family="Arial" font-size="24px" font-style="normal" font-weight="normal" text-decoration="none" x="200" y="90">UNREGISTERED</text><text fill="#eeeeee" stroke="none" font-family="Arial" font-size="24px" font-style="normal" font-weight="normal" text-decoration="none" x="200" y="120">UNREGISTERED</text><text fill="#eeeeee" stroke="none" font-family="Arial" font-size="24px" font-style="normal" font-weight="normal" text-decoration="none" x="200" y="150">UNREGISTERED</text><text fill="#eeeeee" stroke="none" font-family="Arial" font-size="24px" font-style="normal" font-weight="normal" text-decoration="none" x="200" y="180">UNREGISTERED</text><text fill="#eeeeee" stroke="none" font-family="Arial" font-size="24px" font-style="normal" font-weight="normal" text-decoration="none" x="200" y="210">UNREGISTERED</text><text fill="#eeeeee" stroke="none" font-family="Arial" font-size="24px" font-style="normal" font-weight="normal" text-decoration="none" x="200" y="240">UNREGISTERED</text><text fill="#eeeeee" stroke="none" font-family="Arial" font-size="24px" font-style="normal" font-weight="normal" text-decoration="none" x="200" y="270">UNREGISTERED</text><text fill="#eeeeee" stroke="none" font-family="Arial" font-size="24px" font-style="normal" font-weight="normal" text-decoration="none" x="200" y="300">UNREGISTERED</text><text fill="#eeeeee" stroke="none" font-family="Arial" font-size="24px" font-style="normal" font-weight="normal" text-decoration="none" x="200" y="330">UNREGISTERED</text><text fill="#eeeeee" stroke="none" font-family="Arial" font-size="24px" font-style="normal" font-weight="normal" text-decoration="none" x="200" y="360">UNREGISTERED</text><text fill="#eeeeee" stroke="none" font-family="Arial" font-size="24px" font-style="normal" font-weight="normal" text-decoration="none" x="200" y="390">UNREGISTERED</text><text fill="#eeeeee" stroke="none" font-family="Arial" font-size="24px" font-style="normal" font-weight="normal" text-decoration="none" x="200" y="420">UNREGISTERED</text><text fill="#eeeeee" stroke="none" font-family="Arial" font-size="24px" font-style="normal" font-weight="normal" text-decoration="none" x="200" y="450">UNREGISTERED</text><text fill="#eeeeee" stroke="none" font-family="Arial" font-size="24px" font-style="normal" font-weight="normal" text-decoration="none" x="200" y="480">UNREGISTERED</text><text fill="#eeeeee" stroke="none" font-family="Arial" font-size="24px" font-style="normal" font-weight="normal" text-decoration="none" x="200" y="510">UNREGISTERED</text><text fill="#eeeeee" stroke="none" font-family="Arial" font-size="24px" font-style="normal" font-weight="normal" text-decoration="none" x="200" y="540">UNREGISTERED</text><text fill="#eeeeee" stroke="none" font-family="Arial" font-size="24px" font-style="normal" font-weight="normal" text-decoration="none" x="200" y="570">UNREGISTERED</text><text fill="#eeeeee" stroke="none" font-family="Arial" font-size="24px" font-style="normal" font-weight="normal" text-decoration="none" x="200" y="600">UNREGISTERED</text><text fill="#eeeeee" stroke="none" font-family="Arial" font-size="24px" font-style="normal" font-weight="normal" text-decoration="none" x="200" y="630">UNREGISTERED</text><text fill="#eeeeee" stroke="none" font-family="Arial" font-size="24px" font-style="normal" font-weight="normal" text-decoration="none" x="200" y="660">UNREGISTERED</text><text fill="#eeeeee" stroke="none" font-family="Arial" font-size="24px" font-style="normal" font-weight="normal" text-decoration="none" x="400" y="0">UNREGISTERED</text><text fill="#eeeeee" stroke="none" font-family="Arial" font-size="24px" font-style="normal" font-weight="normal" text-decoration="none" x="400" y="30">UNREGISTERED</text><text fill="#eeeeee" stroke="none" font-family="Arial" font-size="24px" font-style="normal" font-weight="normal" text-decoration="none" x="400" y="60">UNREGISTERED</text><text fill="#eeeeee" stroke="none" font-family="Arial" font-size="24px" font-style="normal" font-weight="normal" text-decoration="none" x="400" y="90">UNREGISTERED</text><text fill="#eeeeee" stroke="none" font-family="Arial" font-size="24px" font-style="normal" font-weight="normal" text-decoration="none" x="400" y="120">UNREGISTERED</text><text fill="#eeeeee" stroke="none" font-family="Arial" font-size="24px" font-style="normal" font-weight="normal" text-decoration="none" x="400" y="150">UNREGISTERED</text><text fill="#eeeeee" stroke="none" font-family="Arial" font-size="24px" font-style="normal" font-weight="normal" text-decoration="none" x="400" y="180">UNREGISTERED</text><text fill="#eeeeee" stroke="none" font-family="Arial" font-size="24px" font-style="normal" font-weight="normal" text-decoration="none" x="400" y="210">UNREGISTERED</text><text fill="#eeeeee" stroke="none" font-family="Arial" font-size="24px" font-style="normal" font-weight="normal" text-decoration="none" x="400" y="240">UNREGISTERED</text><text fill="#eeeeee" stroke="none" font-family="Arial" font-size="24px" font-style="normal" font-weight="normal" text-decoration="none" x="400" y="270">UNREGISTERED</text><text fill="#eeeeee" stroke="none" font-family="Arial" font-size="24px" font-style="normal" font-weight="normal" text-decoration="none" x="400" y="300">UNREGISTERED</text><text fill="#eeeeee" stroke="none" font-family="Arial" font-size="24px" font-style="normal" font-weight="normal" text-decoration="none" x="400" y="330">UNREGISTERED</text><text fill="#eeeeee" stroke="none" font-family="Arial" font-size="24px" font-style="normal" font-weight="normal" text-decoration="none" x="400" y="360">UNREGISTERED</text><text fill="#eeeeee" stroke="none" font-family="Arial" font-size="24px" font-style="normal" font-weight="normal" text-decoration="none" x="400" y="390">UNREGISTERED</text><text fill="#eeeeee" stroke="none" font-family="Arial" font-size="24px" font-style="normal" font-weight="normal" text-decoration="none" x="400" y="420">UNREGISTERED</text><text fill="#eeeeee" stroke="none" font-family="Arial" font-size="24px" font-style="normal" font-weight="normal" text-decoration="none" x="400" y="450">UNREGISTERED</text><text fill="#eeeeee" stroke="none" font-family="Arial" font-size="24px" font-style="normal" font-weight="normal" text-decoration="none" x="400" y="480">UNREGISTERED</text><text fill="#eeeeee" stroke="none" font-family="Arial" font-size="24px" font-style="normal" font-weight="normal" text-decoration="none" x="400" y="510">UNREGISTERED</text><text fill="#eeeeee" stroke="none" font-family="Arial" font-size="24px" font-style="normal" font-weight="normal" text-decoration="none" x="400" y="540">UNREGISTERED</text><text fill="#eeeeee" stroke="none" font-family="Arial" font-size="24px" font-style="normal" font-weight="normal" text-decoration="none" x="400" y="570">UNREGISTERED</text><text fill="#eeeeee" stroke="none" font-family="Arial" font-size="24px" font-style="normal" font-weight="normal" text-decoration="none" x="400" y="600">UNREGISTERED</text><text fill="#eeeeee" stroke="none" font-family="Arial" font-size="24px" font-style="normal" font-weight="normal" text-decoration="none" x="400" y="630">UNREGISTERED</text><text fill="#eeeeee" stroke="none" font-family="Arial" font-size="24px" font-style="normal" font-weight="normal" text-decoration="none" x="400" y="660">UNREGISTERED</text><text fill="#eeeeee" stroke="none" font-family="Arial" font-size="24px" font-style="normal" font-weight="normal" text-decoration="none" x="600" y="0">UNREGISTERED</text><text fill="#eeeeee" stroke="none" font-family="Arial" font-size="24px" font-style="normal" font-weight="normal" text-decoration="none" x="600" y="30">UNREGISTERED</text><text fill="#eeeeee" stroke="none" font-family="Arial" font-size="24px" font-style="normal" font-weight="normal" text-decoration="none" x="600" y="60">UNREGISTERED</text><text fill="#eeeeee" stroke="none" font-family="Arial" font-size="24px" font-style="normal" font-weight="normal" text-decoration="none" x="600" y="90">UNREGISTERED</text><text fill="#eeeeee" stroke="none" font-family="Arial" font-size="24px" font-style="normal" font-weight="normal" text-decoration="none" x="600" y="120">UNREGISTERED</text><text fill="#eeeeee" stroke="none" font-family="Arial" font-size="24px" font-style="normal" font-weight="normal" text-decoration="none" x="600" y="150">UNREGISTERED</text><text fill="#eeeeee" stroke="none" font-family="Arial" font-size="24px" font-style="normal" font-weight="normal" text-decoration="none" x="600" y="180">UNREGISTERED</text><text fill="#eeeeee" stroke="none" font-family="Arial" font-size="24px" font-style="normal" font-weight="normal" text-decoration="none" x="600" y="210">UNREGISTERED</text><text fill="#eeeeee" stroke="none" font-family="Arial" font-size="24px" font-style="normal" font-weight="normal" text-decoration="none" x="600" y="240">UNREGISTERED</text><text fill="#eeeeee" stroke="none" font-family="Arial" font-size="24px" font-style="normal" font-weight="normal" text-decoration="none" x="600" y="270">UNREGISTERED</text><text fill="#eeeeee" stroke="none" font-family="Arial" font-size="24px" font-style="normal" font-weight="normal" text-decoration="none" x="600" y="300">UNREGISTERED</text><text fill="#eeeeee" stroke="none" font-family="Arial" font-size="24px" font-style="normal" font-weight="normal" text-decoration="none" x="600" y="330">UNREGISTERED</text><text fill="#eeeeee" stroke="none" font-family="Arial" font-size="24px" font-style="normal" font-weight="normal" text-decoration="none" x="600" y="360">UNREGISTERED</text><text fill="#eeeeee" stroke="none" font-family="Arial" font-size="24px" font-style="normal" font-weight="normal" text-decoration="none" x="600" y="390">UNREGISTERED</text><text fill="#eeeeee" stroke="none" font-family="Arial" font-size="24px" font-style="normal" font-weight="normal" text-decoration="none" x="600" y="420">UNREGISTERED</text><text fill="#eeeeee" stroke="none" font-family="Arial" font-size="24px" font-style="normal" font-weight="normal" text-decoration="none" x="600" y="450">UNREGISTERED</text><text fill="#eeeeee" stroke="none" font-family="Arial" font-size="24px" font-style="normal" font-weight="normal" text-decoration="none" x="600" y="480">UNREGISTERED</text><text fill="#eeeeee" stroke="none" font-family="Arial" font-size="24px" font-style="normal" font-weight="normal" text-decoration="none" x="600" y="510">UNREGISTERED</text><text fill="#eeeeee" stroke="none" font-family="Arial" font-size="24px" font-style="normal" font-weight="normal" text-decoration="none" x="600" y="540">UNREGISTERED</text><text fill="#eeeeee" stroke="none" font-family="Arial" font-size="24px" font-style="normal" font-weight="normal" text-decoration="none" x="600" y="570">UNREGISTERED</text><text fill="#eeeeee" stroke="none" font-family="Arial" font-size="24px" font-style="normal" font-weight="normal" text-decoration="none" x="600" y="600">UNREGISTERED</text><text fill="#eeeeee" stroke="none" font-family="Arial" font-size="24px" font-style="normal" font-weight="normal" text-decoration="none" x="600" y="630">UNREGISTERED</text><text fill="#eeeeee" stroke="none" font-family="Arial" font-size="24px" font-style="normal" font-weight="normal" text-decoration="none" x="600" y="660">UNREGISTERED</text><text fill="#eeeeee" stroke="none" font-family="Arial" font-size="24px" font-style="normal" font-weight="normal" text-decoration="none" x="800" y="0">UNREGISTERED</text><text fill="#eeeeee" stroke="none" font-family="Arial" font-size="24px" font-style="normal" font-weight="normal" text-decoration="none" x="800" y="30">UNREGISTERED</text><text fill="#eeeeee" stroke="none" font-family="Arial" font-size="24px" font-style="normal" font-weight="normal" text-decoration="none" x="800" y="60">UNREGISTERED</text><text fill="#eeeeee" stroke="none" font-family="Arial" font-size="24px" font-style="normal" font-weight="normal" text-decoration="none" x="800" y="90">UNREGISTERED</text><text fill="#eeeeee" stroke="none" font-family="Arial" font-size="24px" font-style="normal" font-weight="normal" text-decoration="none" x="800" y="120">UNREGISTERED</text><text fill="#eeeeee" stroke="none" font-family="Arial" font-size="24px" font-style="normal" font-weight="normal" text-decoration="none" x="800" y="150">UNREGISTERED</text><text fill="#eeeeee" stroke="none" font-family="Arial" font-size="24px" font-style="normal" font-weight="normal" text-decoration="none" x="800" y="180">UNREGISTERED</text><text fill="#eeeeee" stroke="none" font-family="Arial" font-size="24px" font-style="normal" font-weight="normal" text-decoration="none" x="800" y="210">UNREGISTERED</text><text fill="#eeeeee" stroke="none" font-family="Arial" font-size="24px" font-style="normal" font-weight="normal" text-decoration="none" x="800" y="240">UNREGISTERED</text><text fill="#eeeeee" stroke="none" font-family="Arial" font-size="24px" font-style="normal" font-weight="normal" text-decoration="none" x="800" y="270">UNREGISTERED</text><text fill="#eeeeee" stroke="none" font-family="Arial" font-size="24px" font-style="normal" font-weight="normal" text-decoration="none" x="800" y="300">UNREGISTERED</text><text fill="#eeeeee" stroke="none" font-family="Arial" font-size="24px" font-style="normal" font-weight="normal" text-decoration="none" x="800" y="330">UNREGISTERED</text><text fill="#eeeeee" stroke="none" font-family="Arial" font-size="24px" font-style="normal" font-weight="normal" text-decoration="none" x="800" y="360">UNREGISTERED</text><text fill="#eeeeee" stroke="none" font-family="Arial" font-size="24px" font-style="normal" font-weight="normal" text-decoration="none" x="800" y="390">UNREGISTERED</text><text fill="#eeeeee" stroke="none" font-family="Arial" font-size="24px" font-style="normal" font-weight="normal" text-decoration="none" x="800" y="420">UNREGISTERED</text><text fill="#eeeeee" stroke="none" font-family="Arial" font-size="24px" font-style="normal" font-weight="normal" text-decoration="none" x="800" y="450">UNREGISTERED</text><text fill="#eeeeee" stroke="none" font-family="Arial" font-size="24px" font-style="normal" font-weight="normal" text-decoration="none" x="800" y="480">UNREGISTERED</text><text fill="#eeeeee" stroke="none" font-family="Arial" font-size="24px" font-style="normal" font-weight="normal" text-decoration="none" x="800" y="510">UNREGISTERED</text><text fill="#eeeeee" stroke="none" font-family="Arial" font-size="24px" font-style="normal" font-weight="normal" text-decoration="none" x="800" y="540">UNREGISTERED</text><text fill="#eeeeee" stroke="none" font-family="Arial" font-size="24px" font-style="normal" font-weight="normal" text-decoration="none" x="800" y="570">UNREGISTERED</text><text fill="#eeeeee" stroke="none" font-family="Arial" font-size="24px" font-style="normal" font-weight="normal" text-decoration="none" x="800" y="600">UNREGISTERED</text><text fill="#eeeeee" stroke="none" font-family="Arial" font-size="24px" font-style="normal" font-weight="normal" text-decoration="none" x="800" y="630">UNREGISTERED</text><text fill="#eeeeee" stroke="none" font-family="Arial" font-size="24px" font-style="normal" font-weight="normal" text-decoration="none" x="800" y="660">UNREGISTERED</text><g transform="translate(-5,-30) scale(1,1)"><rect fill="#C0C0C0" stroke="none" x="79" y="119" width="218.9296875" height="104" opacity="0.2"/></g><g transform="translate(-5,-30) scale(1,1)"><rect fill="#ffffff" stroke="none" x="72" y="112" width="218.9296875" height="104"/></g><g transform="translate(-5,-30) scale(1,1)"><path fill="none" stroke="#000000" d="M 72 112 L 290.9296875 112 L 290.9296875 216 L 72 216 L 72 112 Z Z" stroke-miterlimit="10"/></g><g transform="translate(-5,-30) scale(1,1)"><path fill="none" stroke="#000000" d="M 72 137 L 290.9296875 137" stroke-miterlimit="10"/></g><g transform="translate(-5,-30) scale(1,1)"><path fill="none" stroke="#000000" d="M 72 175 L 290.9296875 175" stroke-miterlimit="10"/></g><g transform="translate(-5,-30) scale(1,1)"><g><path fill="none" stroke="none"/><text fill="#000000" stroke="none" font-family="Arial" font-size="13px" font-style="normal" font-weight="bold" text-decoration="none" x="152.922607421875" y="131.5">Front End</text></g></g><g transform="translate(-5,-30) scale(1,1)"><g><path fill="none" stroke="none"/><text fill="#000000" stroke="none" font-family="Arial" font-size="13px" font-style="normal" font-weight="normal" text-decoration="none" x="77" y="154.5">+mobile app</text></g></g><g transform="translate(-5,-30) scale(1,1)"><g><path fill="none" stroke="none"/><text fill="#000000" stroke="none" font-family="Arial" font-size="13px" font-style="normal" font-weight="normal" text-decoration="none" x="77" y="169.5">+web interface</text></g></g><g transform="translate(-5,-30) scale(1,1)"><g><path fill="none" stroke="none"/><text fill="#000000" stroke="none" font-family="Arial" font-size="13px" font-style="normal" font-weight="normal" text-decoration="none" x="77" y="192.5">+android app - Ios app using flutter()</text></g></g><g transform="translate(-5,-30) scale(1,1)"><g><path fill="none" stroke="none"/><text fill="#000000" stroke="none" font-family="Arial" font-size="13px" font-style="normal" font-weight="normal" text-decoration="none" x="77" y="207.5">+web interface angular()</text></g></g><g transform="translate(-5,-30) scale(1,1)"><g><path fill="none" stroke="none"/><text fill="#000000" stroke="none" font-family="Arial" font-size="13px" font-style="normal" font-weight="normal" text-decoration="none" x="213" y="58">Overview data flow diagram for Crop recommendation system</text></g></g><g transform="translate(-5,-30) scale(1,1)"><rect fill="#C0C0C0" stroke="none" x="79" y="335" width="216" height="112" opacity="0.2"/></g><g transform="translate(-5,-30) scale(1,1)"><rect fill="#ffffff" stroke="none" x="72" y="328" width="216" height="112"/></g><g transform="translate(-5,-30) scale(1,1)"><path fill="none" stroke="#000000" d="M 72 328 L 288 328 L 288 440 L 72 440 L 72 328 Z Z" stroke-miterlimit="10"/></g><g transform="translate(-5,-30) scale(1,1)"><path fill="none" stroke="#000000" d="M 72 353 L 288 353" stroke-miterlimit="10"/></g><g transform="translate(-5,-30) scale(1,1)"><path fill="none" stroke="#000000" d="M 72 376 L 288 376" stroke-miterlimit="10"/></g><g transform="translate(-5,-30) scale(1,1)"><g><path fill="none" stroke="none"/><text fill="#000000" stroke="none" font-family="Arial" font-size="13px" font-style="normal" font-weight="bold" text-decoration="none" x="157.9609375" y="347.5">Serving</text></g></g><g transform="translate(-5,-30) scale(1,1)"><g><path fill="none" stroke="none"/><text fill="#000000" stroke="none" font-family="Arial" font-size="13px" font-style="normal" font-weight="normal" text-decoration="none" x="77" y="370.5">+Http json API</text></g></g><g transform="translate(-5,-30) scale(1,1)"><g><path fill="none" stroke="none"/><text fill="#000000" stroke="none" font-family="Arial" font-size="13px" font-style="normal" font-weight="normal" text-decoration="none" x="77" y="393.5">+python Json API model()</text></g></g><g transform="translate(-5,-30) scale(1,1)"><path fill="none" stroke="#000000" d="M 144 328 L 144 216" stroke-miterlimit="10"/></g><g transform="translate(-5,-30) scale(1,1)"><path fill="none" stroke="#000000" d="M 148.209517756016 226.16267485762415 L 144 216 L 139.790482243984 226.16267485762415" stroke-miterlimit="10"/></g><g transform="translate(-5,-30) scale(1,1)"><g><path fill="none" stroke="none"/><text fill="#000000" stroke="none" font-family="Arial" font-size="13px" font-style="normal" font-weight="normal" text-decoration="none" x="14.5" y="277.5">+Recommendations</text></g></g><g transform="translate(-5,-30) scale(1,1)"><path fill="none" stroke="#000000" d="M 232 216 L 232 328" stroke-miterlimit="10"/></g><g transform="translate(-5,-30) scale(1,1)"><path fill="none" stroke="#000000" d="M 227.790482243984 317.83732514237585 L 232 328 L 236.209517756016 317.83732514237585" stroke-miterlimit="10"/></g><g transform="translate(-5,-30) scale(1,1)"><g><path fill="none" stroke="none"/><text fill="#000000" stroke="none" font-family="Arial" font-size="13px" font-style="normal" font-weight="normal" text-decoration="none" x="246.5" y="277.5">+Requests</text></g></g><g transform="translate(-5,-30) scale(1,1)"><rect fill="#C0C0C0" stroke="none" x="495" y="111" width="152" height="96" opacity="0.2"/></g><g transform="translate(-5,-30) scale(1,1)"><rect fill="#ffffff" stroke="none" x="488" y="104" width="152" height="96"/></g><g transform="translate(-5,-30) scale(1,1)"><path fill="none" stroke="#000000" d="M 488 104 L 640 104 L 640 200 L 488 200 L 488 104 Z Z" stroke-miterlimit="10"/></g><g transform="translate(-5,-30) scale(1,1)"><path fill="none" stroke="#000000" d="M 488 129 L 640 129" stroke-miterlimit="10"/></g><g transform="translate(-5,-30) scale(1,1)"><path fill="none" stroke="#000000" d="M 488 167 L 640 167" stroke-miterlimit="10"/></g><g transform="translate(-5,-30) scale(1,1)"><g><path fill="none" stroke="none"/><text fill="#000000" stroke="none" font-family="Arial" font-size="13px" font-style="normal" font-weight="bold" text-decoration="none" x="520.889892578125" y="123.5">Data Transport</text></g></g><g transform="translate(-5,-30) scale(1,1)"><g><path fill="none" stroke="none"/><text fill="#000000" stroke="none" font-family="Arial" font-size="13px" font-style="normal" font-weight="normal" text-decoration="none" x="493" y="146.5">+login</text></g></g><g transform="translate(-5,-30) scale(1,1)"><g><path fill="none" stroke="none"/><text fill="#000000" stroke="none" font-family="Arial" font-size="13px" font-style="normal" font-weight="normal" text-decoration="none" x="493" y="161.5">+register or setup</text></g></g><g transform="translate(-5,-30) scale(1,1)"><g><path fill="none" stroke="none"/><text fill="#000000" stroke="none" font-family="Arial" font-size="13px" font-style="normal" font-weight="normal" text-decoration="none" x="493" y="184.5">+Activity()</text></g></g><g transform="translate(-5,-30) scale(1,1)"><path fill="none" stroke="#000000" d="M 291 168 L 488 168" stroke-miterlimit="10"/></g><g transform="translate(-5,-30) scale(1,1)"><path fill="none" stroke="#000000" d="M 477.83732514237585 172.209517756016 L 488 168 L 477.83732514237585 163.790482243984" stroke-miterlimit="10"/></g><g transform="translate(-5,-30) scale(1,1)"><g><path fill="none" stroke="none"/><text fill="#000000" stroke="none" font-family="Arial" font-size="13px" font-style="normal" font-weight="normal" text-decoration="none" x="334.5" y="159.5">~User Item Activity</text></g></g><g transform="translate(-5,-30) scale(1,1)"><path fill="none" stroke="#000000" d="M 488 200 L 392 200 L 392 376 L 288 376" stroke-miterlimit="10"/></g><g transform="translate(-5,-30) scale(1,1)"><path fill="none" stroke="#000000" d="M 298.16267485762415 371.790482243984 L 288 376 L 298.16267485762415 380.209517756016" stroke-miterlimit="10"/></g><g transform="translate(-5,-30) scale(1,1)"><g><path fill="none" stroke="none"/><text fill="#000000" stroke="none" font-family="Arial" font-size="13px" font-style="normal" font-weight="normal" text-decoration="none" x="325.5" y="395.5">+Model  Updates</text></g></g><g transform="translate(-5,-30) scale(1,1)"><rect fill="#C0C0C0" stroke="none" x="511" y="359" width="128" height="72" opacity="0.2"/></g><g transform="translate(-5,-30) scale(1,1)"><rect fill="#ffffff" stroke="none" x="504" y="352" width="128" height="72"/></g><g transform="translate(-5,-30) scale(1,1)"><path fill="none" stroke="#000000" d="M 504 352 L 632 352 L 632 424 L 504 424 L 504 352 Z Z" stroke-miterlimit="10"/></g><g transform="translate(-5,-30) scale(1,1)"><path fill="none" stroke="#000000" d="M 504 377 L 632 377" stroke-miterlimit="10"/></g><g transform="translate(-5,-30) scale(1,1)"><path fill="none" stroke="#000000" d="M 504 400 L 632 400" stroke-miterlimit="10"/></g><g transform="translate(-5,-30) scale(1,1)"><g><path fill="none" stroke="none"/><text fill="#000000" stroke="none" font-family="Arial" font-size="13px" font-style="normal" font-weight="bold" text-decoration="none" x="524.1630859375" y="371.5">Online Training</text></g></g><g transform="translate(-5,-30) scale(1,1)"><g><path fill="none" stroke="none"/><text fill="#000000" stroke="none" font-family="Arial" font-size="13px" font-style="normal" font-weight="normal" text-decoration="none" x="509" y="394.5">+neural networks</text></g></g><g transform="translate(-5,-30) scale(1,1)"><g><path fill="none" stroke="none"/><text fill="#000000" stroke="none" font-family="Arial" font-size="13px" font-style="normal" font-weight="normal" text-decoration="none" x="509" y="417.5">+Operation1()</text></g></g><g transform="translate(-5,-30) scale(1,1)"><rect fill="#C0C0C0" stroke="none" x="783" y="103" width="144" height="112" opacity="0.2"/></g><g transform="translate(-5,-30) scale(1,1)"><rect fill="#ffffff" stroke="none" x="776" y="96" width="144" height="112"/></g><g transform="translate(-5,-30) scale(1,1)"><path fill="none" stroke="#000000" d="M 776 96 L 920 96 L 920 208 L 776 208 L 776 96 Z Z" stroke-miterlimit="10"/></g><g transform="translate(-5,-30) scale(1,1)"><path fill="none" stroke="#000000" d="M 776 121 L 920 121" stroke-miterlimit="10"/></g><g transform="translate(-5,-30) scale(1,1)"><path fill="none" stroke="#000000" d="M 776 159 L 920 159" stroke-miterlimit="10"/></g><g transform="translate(-5,-30) scale(1,1)"><g><path fill="none" stroke="none"/><text fill="#000000" stroke="none" font-family="Arial" font-size="13px" font-style="normal" font-weight="bold" text-decoration="none" x="825.234130859375" y="115.5">Storage</text></g></g><g transform="translate(-5,-30) scale(1,1)"><g><path fill="none" stroke="none"/><text fill="#000000" stroke="none" font-family="Arial" font-size="13px" font-style="normal" font-weight="normal" text-decoration="none" x="781" y="138.5">+RDBMS</text></g></g><g transform="translate(-5,-30) scale(1,1)"><g><path fill="none" stroke="none"/><text fill="#000000" stroke="none" font-family="Arial" font-size="13px" font-style="normal" font-weight="normal" text-decoration="none" x="781" y="153.5">+nosql</text></g></g><g transform="translate(-5,-30) scale(1,1)"><g><path fill="none" stroke="none"/><text fill="#000000" stroke="none" font-family="Arial" font-size="13px" font-style="normal" font-weight="normal" text-decoration="none" x="781" y="176.5">+user Activity()</text></g></g><g transform="translate(-5,-30) scale(1,1)"><g><path fill="none" stroke="none"/><text fill="#000000" stroke="none" font-family="Arial" font-size="13px" font-style="normal" font-weight="normal" text-decoration="none" x="781" y="191.5">+Model training()</text></g></g><g transform="translate(-5,-30) scale(1,1)"><rect fill="#C0C0C0" stroke="none" x="455" y="495" width="230.0380859375" height="87" opacity="0.2"/></g><g transform="translate(-5,-30) scale(1,1)"><rect fill="#ffffff" stroke="none" x="448" y="488" width="230.0380859375" height="87"/></g><g transform="translate(-5,-30) scale(1,1)"><path fill="none" stroke="#000000" d="M 448 488 L 678.0380859375 488 L 678.0380859375 575 L 448 575 L 448 488 Z Z" stroke-miterlimit="10"/></g><g transform="translate(-5,-30) scale(1,1)"><path fill="none" stroke="#000000" d="M 448 513 L 678.0380859375 513" stroke-miterlimit="10"/></g><g transform="translate(-5,-30) scale(1,1)"><path fill="none" stroke="#000000" d="M 448 523 L 678.0380859375 523" stroke-miterlimit="10"/></g><g transform="translate(-5,-30) scale(1,1)"><g><path fill="none" stroke="none"/><text fill="#000000" stroke="none" font-family="Arial" font-size="13px" font-style="normal" font-weight="bold" text-decoration="none" x="461.497802734375" y="507.5">algorithms to train a neural network</text></g></g><g transform="translate(-5,-30) scale(1,1)"><g><path fill="none" stroke="none"/><text fill="#000000" stroke="none" font-family="Arial" font-size="13px" font-style="normal" font-weight="normal" text-decoration="none" x="453" y="540.5">+Problem formulation()</text></g></g><g transform="translate(-5,-30) scale(1,1)"><g><path fill="none" stroke="none"/><text fill="#000000" stroke="none" font-family="Arial" font-size="13px" font-style="normal" font-weight="normal" text-decoration="none" x="453" y="555.5">+One-dimensional optimization()</text></g></g><g transform="translate(-5,-30) scale(1,1)"><g><path fill="none" stroke="none"/><text fill="#000000" stroke="none" font-family="Arial" font-size="13px" font-style="normal" font-weight="normal" text-decoration="none" x="453" y="570.5">+Multidimensional optimization()</text></g></g><g transform="translate(-5,-30) scale(1,1)"><rect fill="#C0C0C0" stroke="none" x="95" y="559" width="207.34521484375" height="117" opacity="0.2"/></g><g transform="translate(-5,-30) scale(1,1)"><rect fill="#ffffff" stroke="none" x="88" y="552" width="207.34521484375" height="117"/></g><g transform="translate(-5,-30) scale(1,1)"><path fill="none" stroke="#000000" d="M 88 552 L 295.34521484375 552 L 295.34521484375 669 L 88 669 L 88 552 Z Z" stroke-miterlimit="10"/></g><g transform="translate(-5,-30) scale(1,1)"><path fill="none" stroke="#000000" d="M 88 577 L 295.34521484375 577" stroke-miterlimit="10"/></g><g transform="translate(-5,-30) scale(1,1)"><path fill="none" stroke="#000000" d="M 88 587 L 295.34521484375 587" stroke-miterlimit="10"/></g><g transform="translate(-5,-30) scale(1,1)"><g><path fill="none" stroke="none"/><text fill="#000000" stroke="none" font-family="Arial" font-size="13px" font-style="normal" font-weight="bold" text-decoration="none" x="147.95947265625" y="571.5">Neural network</text></g></g><g transform="translate(-5,-30) scale(1,1)"><g><path fill="none" stroke="none"/><text fill="#000000" stroke="none" font-family="Arial" font-size="13px" font-style="normal" font-weight="normal" text-decoration="none" x="93" y="604.5">+Gradient descent()</text></g></g><g transform="translate(-5,-30) scale(1,1)"><g><path fill="none" stroke="none"/><text fill="#000000" stroke="none" font-family="Arial" font-size="13px" font-style="normal" font-weight="normal" text-decoration="none" x="93" y="619.5">+Newtons method()</text></g></g><g transform="translate(-5,-30) scale(1,1)"><g><path fill="none" stroke="none"/><text fill="#000000" stroke="none" font-family="Arial" font-size="13px" font-style="normal" font-weight="normal" text-decoration="none" x="93" y="634.5">+Conjugate gradient()</text></g></g><g transform="translate(-5,-30) scale(1,1)"><g><path fill="none" stroke="none"/><text fill="#000000" stroke="none" font-family="Arial" font-size="13px" font-style="normal" font-weight="normal" text-decoration="none" x="93" y="649.5">+Quasi-Newton method()</text></g></g><g transform="translate(-5,-30) scale(1,1)"><g><path fill="none" stroke="none"/><text fill="#000000" stroke="none" font-family="Arial" font-size="13px" font-style="normal" font-weight="normal" text-decoration="none" x="93" y="664.5">+Levenberg-Marquardt algorithm()</text></g></g><g transform="translate(-5,-30) scale(1,1)"><path fill="#C0C0C0" stroke="none" d="M 759 345 L 925.21533203125 345 L 925.21533203125 378 L 759 378" opacity="0.2"/></g><g transform="translate(-5,-30) scale(1,1)"><path fill="#C0C0C0" stroke="none" d="M 759 345 L 769 335 L 935.21533203125 335 L 925.21533203125 345" opacity="0.2"/></g><g transform="translate(-5,-30) scale(1,1)"><path fill="#C0C0C0" stroke="none" d="M 935.21533203125 335 L 925.21533203125 345 L 925.21533203125 378 L 935.21533203125 368" opacity="0.2"/></g><g transform="translate(-5,-30) scale(1,1)"><path fill="#ffffff" stroke="none" d="M 752 338 L 918.21533203125 338 L 918.21533203125 371 L 752 371"/></g><g transform="translate(-5,-30) scale(1,1)"><path fill="#ffffff" stroke="none" d="M 752 338 L 762 328 L 928.21533203125 328 L 918.21533203125 338"/></g><g transform="translate(-5,-30) scale(1,1)"><path fill="#ffffff" stroke="none" d="M 928.21533203125 328 L 918.21533203125 338 L 918.21533203125 371 L 928.21533203125 361"/></g><g transform="translate(-5,-30) scale(1,1)"><path fill="none" stroke="#000000" d="M 752 338 L 918.21533203125 338 L 918.21533203125 371 L 752 371 L 752 338" stroke-miterlimit="10"/></g><g transform="translate(-5,-30) scale(1,1)"><path fill="none" stroke="#000000" d="M 752 338 L 762 328 L 928.21533203125 328 L 918.21533203125 338 L 752 338" stroke-miterlimit="10"/></g><g transform="translate(-5,-30) scale(1,1)"><path fill="none" stroke="#000000" d="M 928.21533203125 328 L 918.21533203125 338 L 918.21533203125 371 L 928.21533203125 361 L 928.21533203125 328" stroke-miterlimit="10"/></g><g transform="translate(-5,-30) scale(1,1)"><g><path fill="none" stroke="none"/><text fill="#000000" stroke="none" font-family="Arial" font-size="13px" font-style="normal" font-weight="bold" text-decoration="none" x="763.00634765625" y="357.5">Artificial Neural Networks</text><path fill="none" stroke="#000000" d="M 914.71533203125 357.5 L 756.5 357.5" stroke-miterlimit="10"/></g></g><g transform="translate(-5,-30) scale(1,1)"><rect fill="#C0C0C0" stroke="none" x="759" y="399" width="77.27851562499995" height="15" opacity="0.2"/></g><g transform="translate(-5,-30) scale(1,1)"><rect fill="#C0C0C0" stroke="none" x="759" y="413" width="193.1962890625" height="66" opacity="0.2"/></g><g transform="translate(-5,-30) scale(1,1)"><rect fill="#ffffff" stroke="none" x="752" y="407" width="193.1962890625" height="65"/></g><g transform="translate(-5,-30) scale(1,1)"><path fill="none" stroke="#000000" d="M 752 407 L 945.1962890625 407 L 945.1962890625 472 L 752 472 L 752 407 Z Z" stroke-miterlimit="10"/></g><g transform="translate(-5,-30) scale(1,1)"><rect fill="#ffffff" stroke="none" x="752" y="392" width="77.27851562499995" height="15"/></g><g transform="translate(-5,-30) scale(1,1)"><path fill="none" stroke="#000000" d="M 752 392 L 829.278515625 392 L 829.278515625 407 L 752 407 L 752 392 Z Z" stroke-miterlimit="10"/></g><g transform="translate(-5,-30) scale(1,1)"><rect fill="#ffffff" stroke="none" x="752" y="406" width="193.1962890625" height="66"/></g><g transform="translate(-5,-30) scale(1,1)"><path fill="none" stroke="#000000" d="M 752 406 L 945.1962890625 406 L 945.1962890625 472 L 752 472 L 752 406 Z Z" stroke-miterlimit="10"/></g><g transform="translate(-5,-30) scale(1,1)"><g><path fill="none" stroke="none"/><text fill="#000000" stroke="none" font-family="Arial" font-size="13px" font-style="normal" font-weight="bold" text-decoration="none" x="761.8828125" y="426.5">The Rise of Machine Learning</text></g></g><g transform="translate(-5,-30) scale(1,1)"><path fill="#ffffff" stroke="none" d="M 752 488 L 933 488 L 943 498 L 943 687 L 752 687 L 752 488"/></g><g transform="translate(-5,-30) scale(1,1)"><path fill="none" stroke="#000000" d="M 752 488 L 933 488 L 943 498 L 943 687 L 752 687 L 752 488 L 752 488" stroke-miterlimit="10"/></g><g transform="translate(-5,-30) scale(1,1)"><path fill="none" stroke="#000000" d="M 933 488 L 933 498 L 943 498 L 933 488" stroke-miterlimit="10"/></g><g transform="translate(-5,-30) scale(1,1)"><g><path fill="none" stroke="none"/><text fill="#000000" stroke="none" font-family="Arial" font-size="13px" font-style="normal" font-weight="normal" text-decoration="none" x="757" y="506">The idea of ANNs is based on</text><text fill="#000000" stroke="none" font-family="Arial" font-size="13px" font-style="normal" font-weight="normal" text-decoration="none" x="757" y="519">the belief that working of</text><text fill="#000000" stroke="none" font-family="Arial" font-size="13px" font-style="normal" font-weight="normal" text-decoration="none" x="757" y="532">human brain by making the</text><text fill="#000000" stroke="none" font-family="Arial" font-size="13px" font-style="normal" font-weight="normal" text-decoration="none" x="757" y="545">right connections, can be</text><text fill="#000000" stroke="none" font-family="Arial" font-size="13px" font-style="normal" font-weight="normal" text-decoration="none" x="757" y="558">imitated using silicon and wires</text><text fill="#000000" stroke="none" font-family="Arial" font-size="13px" font-style="normal" font-weight="normal" text-decoration="none" x="757" y="571">as living neurons and</text><text fill="#000000" stroke="none" font-family="Arial" font-size="13px" font-style="normal" font-weight="normal" text-decoration="none" x="757" y="584">dendrites.The human brain is</text><text fill="#000000" stroke="none" font-family="Arial" font-size="13px" font-style="normal" font-weight="normal" text-decoration="none" x="757" y="597">composed of 86 billion nerve</text><text fill="#000000" stroke="none" font-family="Arial" font-size="13px" font-style="normal" font-weight="normal" text-decoration="none" x="757" y="610">cells called neurons. They are</text><text fill="#000000" stroke="none" font-family="Arial" font-size="13px" font-style="normal" font-weight="normal" text-decoration="none" x="757" y="623">connected to other thousand</text><text fill="#000000" stroke="none" font-family="Arial" font-size="13px" font-style="normal" font-weight="normal" text-decoration="none" x="757" y="636">cells by Axons.</text></g></g><g transform="translate(-5,-30) scale(1,1)"><path fill="none" stroke="#000000" d="M 578 351 L 600 272 L 579 201" stroke-miterlimit="10"/></g><g transform="translate(-5,-30) scale(1,1)"><path fill="none" stroke="#000000" d="M 585.9190744116837 209.55139808952805 L 579 201 L 577.8457728583049 211.93927601376683" stroke-miterlimit="10"/></g><g transform="translate(-5,-30) scale(1,1)"><g><path fill="none" stroke="none"/><text fill="#000000" stroke="none" font-family="Arial" font-size="13px" font-style="normal" font-weight="normal" text-decoration="none" x="615.468017578125" y="281.5">+Model  Training</text></g></g><g transform="translate(-5,-30) scale(1,1)"><path fill="none" stroke="#000000" d="M 547 201 L 520 280 L 552 351" stroke-miterlimit="10"/></g><g transform="translate(-5,-30) scale(1,1)"><path fill="none" stroke="#000000" d="M 543.986434223884 343.4645661338008 L 552 351 L 551.6619096841961 340.0051969122517" stroke-miterlimit="10"/></g><g transform="translate(-5,-30) scale(1,1)"><g><path fill="none" stroke="none"/><text fill="#000000" stroke="none" font-family="Arial" font-size="13px" font-style="normal" font-weight="normal" text-decoration="none" x="414.5" y="278.5">+Model  Updates</text></g></g><g transform="translate(-5,-30) scale(1,1)"><path fill="none" stroke="#000000" d="M 296 588 L 447 556" stroke-miterlimit="10"/></g><g transform="translate(-5,-30) scale(1,1)"><path fill="none" stroke="#000000" d="M 437.93082163777586 562.224950106962 L 447 556 L 436.1854180471003 553.9888269134617" stroke-miterlimit="10"/></g><g transform="translate(-5,-30) scale(1,1)"><path fill="none" stroke="#000000" d="M 447 556 L 296 588" stroke-miterlimit="10"/></g><g transform="translate(-5,-30) scale(1,1)"><path fill="none" stroke="#000000" d="M 305.06917836222414 581.775049893038 L 296 588 L 306.8145819528997 590.0111730865383" stroke-miterlimit="10"/></g><g transform="translate(-5,-30) scale(1,1)"><path fill="none" stroke="#000000" d="M 565 487 L 567 425" stroke-miterlimit="10"/></g><g transform="translate(-5,-30) scale(1,1)"><path fill="none" stroke="#000000" d="M 570.8796715000755 435.29311172831143 L 567 425 L 562.4650129238797 435.0216711290793" stroke-miterlimit="10"/></g><g transform="translate(-5,-30) scale(1,1)"><path fill="none" stroke="#000000" d="M 567 425 L 565 487" stroke-miterlimit="10"/></g><g transform="translate(-5,-30) scale(1,1)"><path fill="none" stroke="#000000" d="M 561.1203284999245 476.70688827168857 L 565 487 L 569.5349870761203 476.9783288709207" stroke-miterlimit="10"/></g></g></svg>